<svg width="20" height="20" viewBox="0 0 20 20" fill="none" xmlns="http://www.w3.org/2000/svg">
<rect width="20" height="20" rx="10" fill="black"/>
<path d="M13.6051 6.02378L13.3057 7.46951C13.2715 7.62349 13.1261 7.76037 12.9464 7.76037H10.3458C10.0549 7.76037 9.81542 7.99989 9.81542 8.29076V8.60728C9.81542 8.89814 10.0549 9.13766 10.3458 9.13766H12.5444C12.7497 9.13766 12.9208 9.33441 12.878 9.54828C12.8352 9.77071 12.6042 10.8999 12.5786 11.0197C12.5615 11.148 12.4246 11.3105 12.2193 11.3105H10.4228C10.0464 11.3191 9.96941 11.3276 9.74699 11.6014C9.52457 11.8751 7.55701 14.3389 7.55701 14.3389C7.53991 14.3645 7.5228 14.356 7.5228 14.3303V5.95534C7.5228 5.7586 7.68533 5.59604 7.8821 5.59604H13.2801C13.4683 5.59604 13.6565 5.78426 13.6051 6.02378ZM13.9986 4.21875H7.33459C6.41925 4.21875 6.14551 4.91168 6.14551 5.34797V15.9386C6.14551 16.4604 6.4107 16.6144 6.55613 16.6742C6.70156 16.7341 7.08651 16.7769 7.36026 16.5032C7.36026 16.5032 10.5255 12.8161 10.5768 12.7562C10.6281 12.6964 10.6538 12.6964 10.688 12.6964H12.6898C13.5452 12.6964 13.7078 12.1061 13.8019 11.7468C13.8789 11.4474 14.76 7.17008 15.0337 5.81845C15.2391 4.77481 14.9739 4.21875 13.9986 4.21875Z" fill="white"/>
</svg>
