<svg width="20" height="20" viewBox="0 0 20 20" fill="none" xmlns="http://www.w3.org/2000/svg">
<rect width="20" height="20" rx="10" fill="black"/>
<path d="M7.917 10C7.917 8.84945 8.84945 7.9165 10 7.9165C11.1505 7.9165 12.0835 8.84945 12.0835 10C12.0835 11.1506 11.1505 12.0835 10 12.0835C8.84945 12.0835 7.917 11.1506 7.917 10ZM6.7907 10C6.7907 11.7725 8.2275 13.2093 10 13.2093C11.7725 13.2093 13.2093 11.7725 13.2093 10C13.2093 8.2275 11.7725 6.7907 10 6.7907C8.2275 6.7907 6.7907 8.2275 6.7907 10ZM12.5863 6.66345C12.5863 6.81179 12.6302 6.95681 12.7126 7.08018C12.7949 7.20355 12.912 7.29973 13.0491 7.35655C13.1861 7.41337 13.3369 7.42828 13.4824 7.3994C13.6279 7.37052 13.7615 7.29914 13.8665 7.19429C13.9714 7.08945 14.0429 6.95584 14.0719 6.81036C14.1009 6.66489 14.0861 6.51408 14.0294 6.37702C13.9727 6.23995 13.8766 6.12278 13.7533 6.04032C13.63 5.95785 13.485 5.91381 13.3366 5.91375H13.3363C13.1375 5.91384 12.9468 5.99285 12.8062 6.13342C12.6656 6.27398 12.5865 6.46462 12.5863 6.66345ZM7.475 15.0874C6.86565 15.0596 6.53445 14.9581 6.31435 14.8724C6.02255 14.7588 5.81435 14.6235 5.59545 14.4049C5.37655 14.1863 5.24105 13.9783 5.12795 13.6865C5.04215 13.4665 4.94065 13.1352 4.91295 12.5258C4.88265 11.867 4.8766 11.6691 4.8766 10.0001C4.8766 8.331 4.88315 8.13365 4.91295 7.4743C4.9407 6.86495 5.04295 6.5343 5.12795 6.31365C5.24155 6.02185 5.37685 5.81365 5.59545 5.59475C5.81405 5.37585 6.02205 5.24035 6.31435 5.12725C6.53435 5.04145 6.86565 4.93995 7.475 4.91225C8.1338 4.88195 8.3317 4.8759 10 4.8759C11.6683 4.8759 11.8664 4.88245 12.5257 4.91225C13.1351 4.94 13.4657 5.04225 13.6864 5.12725C13.9782 5.24035 14.1864 5.37615 14.4053 5.59475C14.6242 5.81335 14.7592 6.02185 14.8728 6.31365C14.9586 6.53365 15.0601 6.86495 15.0878 7.4743C15.1181 8.13365 15.1241 8.331 15.1241 10.0001C15.1241 11.6691 15.1181 11.8665 15.0878 12.5258C15.06 13.1352 14.958 13.4664 14.8728 13.6865C14.7592 13.9783 14.6239 14.1865 14.4053 14.4049C14.1867 14.6233 13.9782 14.7588 13.6864 14.8724C13.4664 14.9582 13.1351 15.0597 12.5257 15.0874C11.8669 15.1177 11.669 15.1237 10 15.1237C8.33095 15.1237 8.1336 15.1177 7.475 15.0874ZM7.42325 3.78785C6.7579 3.81815 6.30325 3.92365 5.9062 4.07815C5.495 4.2377 5.1469 4.45175 4.79905 4.79905C4.4512 5.14635 4.2377 5.495 4.07815 5.9062C3.92365 6.3035 3.81815 6.7579 3.78785 7.42325C3.75705 8.08965 3.75 8.3027 3.75 10C3.75 11.6973 3.75705 11.9104 3.78785 12.5768C3.81815 13.2422 3.92365 13.6965 4.07815 14.0938C4.2377 14.5048 4.45125 14.8538 4.79905 15.201C5.14685 15.5481 5.495 15.7619 5.9062 15.9219C6.304 16.0764 6.7579 16.1819 7.42325 16.2122C8.09 16.2425 8.3027 16.25 10 16.25C11.6973 16.25 11.9103 16.243 12.5767 16.2122C13.2421 16.1819 13.6965 16.0764 14.0938 15.9219C14.5047 15.7619 14.8531 15.5483 15.2009 15.201C15.5488 14.8537 15.7618 14.5048 15.9218 14.0938C16.0763 13.6965 16.1823 13.2421 16.2121 12.5768C16.2424 11.9099 16.2495 11.6973 16.2495 10C16.2495 8.3027 16.2424 8.08965 16.2121 7.42325C16.1818 6.75785 16.0763 6.30325 15.9218 5.9062C15.7618 5.49525 15.5482 5.1469 15.2009 4.79905C14.8536 4.4512 14.5047 4.2377 14.0943 4.07815C13.6965 3.92365 13.2421 3.81765 12.5772 3.78785C11.9108 3.75755 11.6978 3.75 10.0005 3.75C8.3032 3.75 8.09 3.75705 7.42325 3.78785Z" fill="white"/>
</svg>
