<svg width="50" height="51" viewBox="0 0 50 51" fill="none" xmlns="http://www.w3.org/2000/svg">
<path d="M45.3066 15.7273L42.8035 18C47.3091 22.0909 47.3091 28.4545 42.8035 32.7727L45.3066 35.0455C51.5645 29.8182 51.5645 21.1818 45.3066 15.7273ZM40.0501 20.5L37.5469 22.7727C38.7985 24.3636 38.7985 26.4091 37.5469 28L40.0501 30.2727C43.0538 27.5455 43.0538 23.4545 40.0501 20.5ZM30.0375 0.5H5.00626C2.25282 0.5 0 2.54545 0 5.04545V45.9545C0 48.4545 2.25282 50.5 5.00626 50.5H30.0375C32.791 50.5 35.0438 48.4545 35.0438 45.9545V5.04545C35.0438 2.54545 32.791 0.5 30.0375 0.5ZM30.0375 43.6818H5.00626V7.31818H30.0375V43.6818Z" fill="#E4C280"/>
</svg>
