<svg width="51" height="51" viewBox="0 0 51 51" fill="none" xmlns="http://www.w3.org/2000/svg">
<path d="M22.7222 39.3889C22.7222 40.9167 23.9722 42.1667 25.5 42.1667C27.0278 42.1667 28.2778 40.9167 28.2778 39.3889C28.2778 37.8611 27.0278 36.6111 25.5 36.6111C23.9722 36.6111 22.7222 37.8611 22.7222 39.3889ZM22.7222 0.5V11.6111H28.2778V6.27778C37.6944 7.63889 44.9444 15.6944 44.9444 25.5C44.9444 36.25 36.25 44.9444 25.5 44.9444C14.75 44.9444 6.05556 36.25 6.05556 25.5C6.05556 20.8333 7.69444 16.5556 10.4444 13.2222L25.5 28.2778L29.4167 24.3611L10.5278 5.47222V5.52778C4.44444 10.0833 0.5 17.3056 0.5 25.5C0.5 39.3056 11.6667 50.5 25.5 50.5C39.3056 50.5 50.5 39.3056 50.5 25.5C50.5 11.6944 39.3056 0.5 25.5 0.5H22.7222ZM42.1667 25.5C42.1667 23.9722 40.9167 22.7222 39.3889 22.7222C37.8611 22.7222 36.6111 23.9722 36.6111 25.5C36.6111 27.0278 37.8611 28.2778 39.3889 28.2778C40.9167 28.2778 42.1667 27.0278 42.1667 25.5ZM8.83333 25.5C8.83333 27.0278 10.0833 28.2778 11.6111 28.2778C13.1389 28.2778 14.3889 27.0278 14.3889 25.5C14.3889 23.9722 13.1389 22.7222 11.6111 22.7222C10.0833 22.7222 8.83333 23.9722 8.83333 25.5Z" fill="#E4C280"/>
</svg>
