<svg width="20" height="20" viewBox="0 0 20 20" fill="none" xmlns="http://www.w3.org/2000/svg">
<rect width="20" height="20" rx="10" fill="black"/>
<path d="M6.42471 10.0457C6.1009 10.0457 5.83105 10.2885 5.83105 10.6393C5.83105 10.9631 6.07391 11.233 6.42471 11.233C6.7755 11.233 7.01836 10.9901 7.01836 10.6393C7.01836 10.2885 6.74852 10.0457 6.42471 10.0457Z" fill="white"/>
<path d="M13.5214 10.0457C13.1976 10.0457 12.9277 10.2885 12.9277 10.6393C12.9277 10.9631 13.1706 11.233 13.5214 11.233C13.8452 11.233 14.115 10.9901 14.115 10.6393C14.115 10.2885 13.8452 10.0457 13.5214 10.0457Z" fill="white"/>
<path d="M16.3821 8.56147C16.544 7.85988 17.0837 7.13131 17.0837 7.13131H14.736C13.4138 6.26781 11.7948 5.80908 10.0408 5.80908C8.20588 5.80908 6.50588 6.2948 5.18366 7.13131L2.91699 7.15829C2.91699 7.15829 3.45667 7.85988 3.61858 8.56147C3.18683 9.12813 2.91699 9.85671 2.91699 10.6392C2.91699 12.6091 4.53604 14.1742 6.45191 14.1742C7.58525 14.1742 8.55668 13.6345 9.23128 12.8519L9.98684 13.9853L10.7424 12.825C11.0662 13.2837 11.5249 13.6075 12.0376 13.8504C12.9011 14.2551 13.8456 14.3091 14.763 13.9583C16.571 13.2837 17.5424 11.2329 16.8678 9.42496C16.7329 9.10115 16.571 8.80432 16.3821 8.56147ZM12.3345 13.2297C11.6599 12.9329 11.1202 12.3662 10.8773 11.6377C10.6345 10.9361 10.6614 10.1535 10.9583 9.47893C11.2551 8.80432 11.8218 8.26464 12.5503 8.02178C14.0075 7.4821 15.6265 8.23766 16.1932 9.6948C16.7329 11.1519 15.9773 12.771 14.5202 13.3377C13.7916 13.5535 13.036 13.5266 12.3345 13.2297ZM6.45191 13.4726C4.88683 13.4726 3.61858 12.2043 3.61858 10.6392C3.61858 9.07417 4.88683 7.83289 6.45191 7.83289C8.01699 7.83289 9.28525 9.07417 9.28525 10.6392C9.28525 12.1773 8.01699 13.4726 6.45191 13.4726ZM12.3075 7.34718C11.417 7.67099 10.7154 8.31861 10.3106 9.1821C10.1487 9.58686 10.0408 9.96464 10.0138 10.3964C9.8789 8.58845 8.39477 7.15829 6.55985 7.13131C7.55826 6.69956 8.74557 6.4567 10.0138 6.4567C11.2821 6.4567 12.4154 6.67258 13.4408 7.13131C13.036 7.13131 12.6852 7.21226 12.3075 7.34718Z" fill="white"/>
<path d="M6.42522 8.8584C5.48078 8.8584 4.69824 9.64094 4.69824 10.5854C4.69824 11.5298 5.48078 12.3124 6.42522 12.3124C7.36967 12.3124 8.15221 11.5298 8.15221 10.5854C8.15221 9.64094 7.36967 8.8584 6.42522 8.8584ZM6.42522 11.7727C5.77761 11.7727 5.26491 11.26 5.26491 10.6124C5.26491 9.96474 5.77761 9.45205 6.42522 9.45205C7.07284 9.45205 7.58554 9.96474 7.58554 10.6124C7.58554 11.233 7.04586 11.7727 6.42522 11.7727Z" fill="white"/>
<path d="M13.5219 8.8584C12.5775 8.8584 11.7949 9.64094 11.7949 10.5854C11.7949 11.5298 12.5775 12.3124 13.5219 12.3124C14.4663 12.3124 15.2489 11.5298 15.2489 10.5854C15.2489 9.64094 14.4933 8.8584 13.5219 8.8584ZM13.5219 11.7727C12.8743 11.7727 12.3616 11.26 12.3616 10.6124C12.3616 9.96474 12.8743 9.45205 13.5219 9.45205C14.1695 9.45205 14.6822 9.96474 14.6822 10.6124C14.6552 11.233 14.1695 11.7727 13.5219 11.7727Z" fill="white"/>
</svg>
