<svg width="20" height="20" viewBox="0 0 20 20" fill="none" xmlns="http://www.w3.org/2000/svg">
<rect width="20" height="20" rx="10" fill="black"/>
<path d="M14.9014 7.83862C14.9014 7.948 14.9014 8.05737 14.9014 8.15112C14.9014 11.3855 12.4326 15.1199 7.93262 15.1199C6.54199 15.1199 5.26074 14.7136 4.16699 14.0261C4.35449 14.0417 4.55762 14.0574 4.74512 14.0574C5.88574 14.0574 6.94824 13.6667 7.79199 13.0105C6.71387 12.9949 5.80762 12.2761 5.51074 11.3074C5.66699 11.3386 5.80762 11.3542 5.97949 11.3542C6.19824 11.3542 6.41699 11.323 6.62012 11.2605C5.49512 11.0417 4.65137 10.0574 4.65137 8.86987C4.65137 8.85425 4.65137 8.85425 4.65137 8.83862C4.97949 9.02612 5.35449 9.1355 5.76074 9.15112C5.10449 8.71362 4.66699 7.96362 4.66699 7.10425C4.66699 6.65112 4.79199 6.22925 4.99512 5.86987C6.19824 7.35425 8.01074 8.323 10.042 8.43237C9.99512 8.2605 9.97949 8.05737 9.97949 7.86987C9.97949 6.5105 11.0732 5.41675 12.4326 5.41675C13.1357 5.41675 13.7764 5.71362 14.2139 6.18237C14.7764 6.073 15.292 5.86987 15.7764 5.58862C15.5889 6.16675 15.1982 6.6355 14.6982 6.948C15.1982 6.8855 15.667 6.7605 16.1045 6.55737C15.792 7.05737 15.3857 7.49487 14.9014 7.83862Z" fill="white"/>
</svg>
